<?xml version="1.0" encoding="UTF-8" standalone="no"?>
<!-- Created with Inkscape (http://www.inkscape.org/) -->

<svg
   version="1.1"
   id="svg9"
   xml:space="preserve"
   width="873.41376"
   height="178.08656"
   viewBox="0 0 873.41374 178.08656"
   sodipodi:docname="Logotipo.svg"
   inkscape:version="1.1.2 (b8e25be833, 2022-02-05)"
   xmlns:inkscape="http://www.inkscape.org/namespaces/inkscape"
   xmlns:sodipodi="http://sodipodi.sourceforge.net/DTD/sodipodi-0.dtd"
   xmlns="http://www.w3.org/2000/svg"
   xmlns:svg="http://www.w3.org/2000/svg"><defs
     id="defs13"><clipPath
       clipPathUnits="userSpaceOnUse"
       id="clipPath59"><path
         d="M 0,1190.55 H 1683.78 V 0 H 0 Z"
         id="path57" /></clipPath></defs><sodipodi:namedview
     id="namedview11"
     pagecolor="#ffffff"
     bordercolor="#666666"
     borderopacity="1.0"
     inkscape:pageshadow="2"
     inkscape:pageopacity="0.0"
     inkscape:pagecheckerboard="0"
     showgrid="false"
     fit-margin-top="0"
     fit-margin-left="0"
     fit-margin-right="0"
     fit-margin-bottom="0"
     inkscape:zoom="0.8837721"
     inkscape:cx="500.69469"
     inkscape:cy="97.310155"
     inkscape:window-width="1366"
     inkscape:window-height="705"
     inkscape:window-x="-8"
     inkscape:window-y="-8"
     inkscape:window-maximized="1"
     inkscape:current-layer="g15" /><g
     id="g15"
     inkscape:groupmode="layer"
     inkscape:label="01A Original Logotipo"
     transform="matrix(1.3333333,0,0,-1.3333333,-614.63553,795.78804)"><g
       id="g49"
       transform="translate(601.4736,554.3779)"><path
         d="M 0,0 H -3.688 V 1.132 H 5.03 V 0 H 1.341 V -13.998 H 0 Z"
         style="fill:#919696;fill-opacity:1;fill-rule:nonzero;stroke:none"
         id="path51" /></g><g
       id="g61"
       transform="translate(472.51616,472.03602)"><path
         d="m 0,0 h 2.18 c 2.011,0 2.954,0.524 2.954,3.06 0,2.074 -0.817,2.472 -2.388,2.472 H 0 Z m 0,-1.132 v -7.334 h -1.341 v 15.13 h 4.17 c 2.913,0 3.647,-0.964 3.647,-3.625 0,-1.887 -0.315,-3.143 -2.348,-3.604 v -0.042 c 2.117,-0.441 2.243,-0.693 2.243,-6.099 0,-0.587 0.105,-1.173 0.147,-1.76 H 5.239 c -0.126,0.44 -0.189,2.955 -0.21,3.772 -0.021,0.649 0.42,3.562 -2.493,3.562 z"
         style="fill:#919696;fill-opacity:1;fill-rule:nonzero;stroke:none"
         id="path63" /></g><g
       id="g65"
       transform="translate(488.38196,468.68352)"><path
         d="M 0,0 -2.578,8.55 H -2.619 L -5.176,0 Z M -1.739,10.017 2.976,-5.113 H 1.572 l -1.216,3.981 h -5.93 l -1.194,-3.981 h -1.341 l 4.777,15.13 z"
         style="fill:#919696;fill-opacity:1;fill-rule:nonzero;stroke:none"
         id="path67" /></g><g
       id="g69"
       transform="translate(493.03666,463.57022)"><path
         d="M 0,0 V 15.13 H 2.054 L 8.193,1.844 8.235,1.886 V 15.13 H 9.577 V 0 H 7.544 L 1.383,13.433 1.341,13.391 V 0 Z"
         style="fill:#919696;fill-opacity:1;fill-rule:nonzero;stroke:none"
         id="path71" /></g><g
       id="g73"
       transform="translate(511.89896,474.86512)"><path
         d="m 0,0 c -0.042,1.865 -0.503,2.997 -2.557,2.997 -1.634,0 -2.661,-0.566 -2.661,-2.348 0,-2.242 1.132,-2.304 2.85,-3.542 1.865,-1.34 3.772,-1.738 3.772,-4.672 0,-2.704 -1.383,-4.024 -4.023,-4.024 -2.955,0 -4.275,1.593 -4.15,4.548 h 1.383 c 0,-1.677 0.126,-3.416 2.829,-3.416 1.761,0 2.62,0.943 2.62,2.683 0,2.053 -1.362,2.64 -3.542,3.981 -2.933,1.802 -3.059,2.703 -3.08,4.212 -0.021,2.62 1.635,3.709 4.107,3.709 C 0.691,4.128 1.362,2.18 1.362,0 Z"
         style="fill:#919696;fill-opacity:1;fill-rule:nonzero;stroke:none"
         id="path75" /></g><g
       id="g77"
       transform="translate(516.93076,471.74302)"><path
         d="m 0,0 h 2.494 c 1.404,0 2.305,0.67 2.305,3.038 0,2.577 -1.111,2.787 -2.326,2.787 L 0,5.825 Z M -1.341,6.957 H 2.808 C 4.065,6.957 6.14,6.789 6.14,3.29 6.14,0.251 5.155,-1.132 2.557,-1.132 H 0 v -7.041 h -1.341 z"
         style="fill:#919696;fill-opacity:1;fill-rule:nonzero;stroke:none"
         id="path79" /></g><g
       id="g81"
       transform="translate(532.35556,471.13462)"><path
         d="m 0,0 c 0,3.814 0.042,6.728 -3.227,6.728 -3.269,0 -3.227,-2.914 -3.227,-6.728 0,-3.813 -0.042,-6.727 3.227,-6.727 C 0.042,-6.727 0,-3.813 0,0 m -7.795,0 c 0,2.934 -0.356,7.858 4.568,7.858 4.924,0 4.568,-4.924 4.568,-7.858 0,-2.934 0.356,-7.858 -4.568,-7.858 -4.924,0 -4.568,4.924 -4.568,7.858"
         style="fill:#919696;fill-opacity:1;fill-rule:nonzero;stroke:none"
         id="path83" /></g><g
       id="g85"
       transform="translate(537.51326,472.03602)"><path
         d="m 0,0 h 2.18 c 2.011,0 2.954,0.524 2.954,3.06 0,2.074 -0.817,2.472 -2.389,2.472 H 0 Z m 0,-1.132 v -7.334 h -1.341 v 15.13 h 4.17 c 2.913,0 3.646,-0.964 3.646,-3.625 0,-1.887 -0.314,-3.143 -2.347,-3.604 v -0.042 c 2.117,-0.441 2.243,-0.693 2.243,-6.099 0,-0.587 0.104,-1.173 0.146,-1.76 H 5.239 c -0.126,0.44 -0.189,2.955 -0.21,3.772 -0.021,0.649 0.42,3.562 -2.493,3.562 z"
         style="fill:#919696;fill-opacity:1;fill-rule:nonzero;stroke:none"
         id="path87" /></g><g
       id="g89"
       transform="translate(548.97806,477.56822)"><path
         d="M 0,0 H -3.688 V 1.132 H 5.029 V 0 H 1.341 V -13.998 H 0 Z"
         style="fill:#919696;fill-opacity:1;fill-rule:nonzero;stroke:none"
         id="path91" /></g><g
       id="g93"
       transform="translate(562.49566,478.70012)"><path
         d="M 0,0 V -1.132 H -5.511 V -6.79 h 5.26 v -1.132 h -5.26 v -6.077 H 0.147 V -15.13 H -6.852 V 0 Z"
         style="fill:#919696;fill-opacity:1;fill-rule:nonzero;stroke:none"
         id="path95" /></g><g
       id="g97"
       transform="translate(570.48246,464.70102)"><path
         d="m 0,0 h 1.634 c 4.045,0 4.443,1.09 4.443,7.271 0,4.339 -0.587,5.596 -4.317,5.596 H 0 Z m -1.341,13.999 h 4.002 c 4.233,0 4.757,-2.473 4.757,-7.628 0,-5.029 -0.733,-7.502 -5.301,-7.502 h -3.458 z"
         style="fill:#919696;fill-opacity:1;fill-rule:nonzero;stroke:none"
         id="path99" /></g><g
       id="g101"
       transform="translate(587.41706,478.70012)"><path
         d="M 0,0 V -1.132 H -5.511 V -6.79 h 5.26 v -1.132 h -5.26 v -6.077 H 0.146 V -15.13 H -6.853 V 0 Z"
         style="fill:#919696;fill-opacity:1;fill-rule:nonzero;stroke:none"
         id="path103" /></g><g
       id="g105"
       transform="translate(600.91416,478.70012)"><path
         d="M 0,0 V -1.132 H -5.511 V -6.79 h 5.26 v -1.132 h -5.26 v -6.077 H 0.147 V -15.13 H -6.852 V 0 Z"
         style="fill:#919696;fill-opacity:1;fill-rule:nonzero;stroke:none"
         id="path107" /></g><g
       id="g109"
       transform="translate(603.17976,463.57022)"><path
         d="M 0,0 V 15.13 H 2.053 L 8.193,1.844 8.235,1.886 V 15.13 H 9.576 V 0 H 7.543 L 1.383,13.433 1.341,13.391 V 0 Z"
         style="fill:#919696;fill-opacity:1;fill-rule:nonzero;stroke:none"
         id="path111" /></g><g
       id="g113"
       transform="translate(622.56556,478.70012)"><path
         d="M 0,0 V -1.132 H -5.511 V -6.79 h 5.26 v -1.132 h -5.26 v -6.077 H 0.147 V -15.13 H -6.852 V 0 Z"
         style="fill:#919696;fill-opacity:1;fill-rule:nonzero;stroke:none"
         id="path115" /></g><g
       id="g117"
       transform="translate(625.98296,472.03602)"><path
         d="m 0,0 h 2.18 c 2.011,0 2.954,0.524 2.954,3.06 0,2.074 -0.817,2.472 -2.389,2.472 H 0 Z m 0,-1.132 v -7.334 h -1.341 v 15.13 h 4.17 c 2.913,0 3.646,-0.964 3.646,-3.625 0,-1.887 -0.314,-3.143 -2.347,-3.604 v -0.042 c 2.117,-0.441 2.243,-0.693 2.243,-6.099 0,-0.587 0.104,-1.173 0.146,-1.76 H 5.239 c -0.126,0.44 -0.189,2.955 -0.21,3.772 -0.021,0.649 0.42,3.562 -2.493,3.562 z"
         style="fill:#919696;fill-opacity:1;fill-rule:nonzero;stroke:none"
         id="path119" /></g><g
       id="g121"
       transform="translate(642.10016,470.33872)"><path
         d="m 0,0 h -3.059 v 1.132 h 4.4 V -6.434 C 0,-6.853 -1.404,-7.062 -2.829,-7.062 c -4.924,0 -4.568,4.924 -4.568,7.858 0,2.933 -0.356,7.858 4.568,7.858 2.892,0 4.38,-1.236 4.317,-4.17 H 0.147 c 0,1.991 -0.859,3.039 -2.976,3.039 -3.269,0 -3.227,-2.913 -3.227,-6.727 0,-3.814 -0.042,-6.727 3.227,-6.727 1.153,0 2.117,0.168 2.829,0.441 z"
         style="fill:#919696;fill-opacity:1;fill-rule:nonzero;stroke:none"
         id="path123" /></g><path
       d="m 647.88676,463.57032 h -1.341 v 15.13 h 1.341 z m 0.356,19.153 h 1.676 l -2.996,-2.871 h -1.048 z"
       style="fill:#919696;fill-opacity:1;fill-rule:nonzero;stroke:none"
       id="path125" /><g
       id="g127"
       transform="translate(657.69446,468.68352)"><path
         d="M 0,0 -2.578,8.55 H -2.62 L -5.176,0 Z M -1.739,10.017 2.976,-5.113 H 1.572 l -1.216,3.981 h -5.93 L -6.769,-5.113 H -8.11 l 4.778,15.13 z"
         style="fill:#919696;fill-opacity:1;fill-rule:nonzero;stroke:none"
         id="path129" /></g><g
       id="g131"
       transform="translate(673.58166,478.70012)"><path
         d="M 0,0 V -1.132 H -5.511 V -6.79 h 5.26 v -1.132 h -5.26 v -6.077 H 0.146 V -15.13 H -6.853 V 0 Z"
         style="fill:#919696;fill-opacity:1;fill-rule:nonzero;stroke:none"
         id="path133" /></g><g
       id="g135"
       transform="translate(675.63676,463.57022)"><path
         d="M 0,0 V 15.13 H 1.341 V 1.131 H 6.349 V 0 Z"
         style="fill:#919696;fill-opacity:1;fill-rule:nonzero;stroke:none"
         id="path137" /></g><g
       id="g139"
       transform="translate(687.83456,482.72352)"><path
         d="M 0,0 H 1.677 L -1.32,-2.871 h -1.048 z m 2.745,-4.023 v -1.132 h -5.511 v -5.658 h 5.26 v -1.132 h -5.26 v -6.077 h 5.658 v -1.131 h -6.999 v 15.13 z"
         style="fill:#919696;fill-opacity:1;fill-rule:nonzero;stroke:none"
         id="path141" /></g><g
       id="g143"
       transform="translate(692.40436,471.13462)"><path
         d="m 0,0 c 0,2.934 -0.356,7.858 4.568,7.858 3.919,0 3.731,-3.541 3.731,-4.379 H 6.916 C 7,5.155 6.412,6.728 4.568,6.728 1.299,6.728 1.341,3.814 1.341,0 c 0,-3.813 -0.042,-6.727 3.227,-6.727 1.74,0 2.39,1.551 2.41,3.5 H 8.403 C 8.403,-4.316 8.151,-7.858 4.568,-7.858 -0.356,-7.858 0,-2.934 0,0"
         style="fill:#919696;fill-opacity:1;fill-rule:nonzero;stroke:none"
         id="path145" /></g><g
       id="g147"
       transform="translate(705.46196,477.56822)"><path
         d="M 0,0 H -3.688 V 1.132 H 5.029 V 0 H 1.341 V -13.998 H 0 Z"
         style="fill:#919696;fill-opacity:1;fill-rule:nonzero;stroke:none"
         id="path149" /></g><g
       id="g151"
       transform="translate(713.32186,472.03602)"><path
         d="m 0,0 h 2.18 c 2.011,0 2.954,0.524 2.954,3.06 0,2.074 -0.818,2.472 -2.389,2.472 H 0 Z m 0,-1.132 v -7.334 h -1.341 v 15.13 h 4.17 c 2.913,0 3.647,-0.964 3.647,-3.625 0,-1.887 -0.315,-3.143 -2.347,-3.604 V -0.607 C 6.245,-1.048 6.37,-1.3 6.37,-6.706 c 0,-0.587 0.106,-1.173 0.148,-1.76 h -1.28 c -0.125,0.44 -0.187,2.955 -0.209,3.772 -0.02,0.649 0.419,3.562 -2.493,3.562 z"
         style="fill:#919696;fill-opacity:1;fill-rule:nonzero;stroke:none"
         id="path153" /></g><path
       d="m 723.80276,463.57032 h -1.342 v 15.13 h 1.342 z"
       style="fill:#919696;fill-opacity:1;fill-rule:nonzero;stroke:none"
       id="path155" /><g
       id="g157"
       transform="translate(726.40096,471.13462)"><path
         d="m 0,0 c 0,2.934 -0.355,7.858 4.568,7.858 3.919,0 3.731,-3.541 3.731,-4.379 H 6.916 C 6.999,5.155 6.412,6.728 4.568,6.728 1.3,6.728 1.342,3.814 1.342,0 c 0,-3.813 -0.042,-6.727 3.226,-6.727 1.74,0 2.39,1.551 2.411,3.5 H 8.403 C 8.403,-4.316 8.151,-7.858 4.568,-7.858 -0.355,-7.858 0,-2.934 0,0"
         style="fill:#919696;fill-opacity:1;fill-rule:nonzero;stroke:none"
         id="path159" /></g><g
       id="g161"
       transform="translate(743.85896,468.68352)"><path
         d="M 0,0 -2.577,8.55 H -2.619 L -5.176,0 Z M -1.739,10.017 2.976,-5.113 H 1.572 l -1.216,3.981 h -5.93 l -1.195,-3.981 h -1.34 l 4.777,15.13 z"
         style="fill:#919696;fill-opacity:1;fill-rule:nonzero;stroke:none"
         id="path163" /></g><g
       id="g165"
       transform="translate(754.00446,471.74302)"><path
         d="m 0,0 h 2.494 c 1.404,0 2.305,0.67 2.305,3.038 0,2.577 -1.111,2.787 -2.326,2.787 L 0,5.825 Z m -1.341,6.957 h 4.15 c 1.256,0 3.332,-0.168 3.332,-3.667 0,-3.039 -0.986,-4.422 -3.584,-4.422 H 0 v -7.041 h -1.341 z"
         style="fill:#919696;fill-opacity:1;fill-rule:nonzero;stroke:none"
         id="path167" /></g><g
       id="g169"
       transform="translate(769.43026,471.13462)"><path
         d="m 0,0 c 0,3.814 0.041,6.728 -3.228,6.728 -3.269,0 -3.227,-2.914 -3.227,-6.728 0,-3.813 -0.042,-6.727 3.227,-6.727 C 0.041,-6.727 0,-3.813 0,0 m -7.797,0 c 0,2.934 -0.355,7.858 4.569,7.858 4.924,0 4.569,-4.924 4.569,-7.858 0,-2.934 0.355,-7.858 -4.569,-7.858 -4.924,0 -4.569,4.924 -4.569,7.858"
         style="fill:#919696;fill-opacity:1;fill-rule:nonzero;stroke:none"
         id="path171" /></g><g
       id="g173"
       transform="translate(774.58646,472.03602)"><path
         d="m 0,0 h 2.18 c 2.011,0 2.955,0.524 2.955,3.06 0,2.074 -0.818,2.472 -2.39,2.472 H 0 Z m 0,-1.132 v -7.334 h -1.341 v 15.13 h 4.17 c 2.913,0 3.647,-0.964 3.647,-3.625 0,-1.887 -0.315,-3.143 -2.348,-3.604 V -0.607 C 6.245,-1.048 6.37,-1.3 6.37,-6.706 c 0,-0.587 0.106,-1.173 0.148,-1.76 H 5.239 c -0.126,0.44 -0.188,2.955 -0.21,3.772 -0.02,0.649 0.42,3.562 -2.493,3.562 z"
         style="fill:#919696;fill-opacity:1;fill-rule:nonzero;stroke:none"
         id="path175" /></g><g
       id="g177"
       transform="translate(789.40486,464.70102)"><path
         d="m 0,0 h 1.635 c 4.045,0 4.443,1.09 4.443,7.271 0,4.339 -0.587,5.596 -4.317,5.596 H 0 Z m -1.341,13.999 h 4.003 c 4.234,0 4.757,-2.473 4.757,-7.628 0,-5.029 -0.733,-7.502 -5.302,-7.502 h -3.458 z"
         style="fill:#919696;fill-opacity:1;fill-rule:nonzero;stroke:none"
         id="path179" /></g><path
       d="m 800.91176,463.57032 h -1.341 v 15.13 h 1.341 z"
       style="fill:#919696;fill-opacity:1;fill-rule:nonzero;stroke:none"
       id="path181" /><g
       id="g183"
       transform="translate(810.23886,474.86512)"><path
         d="m 0,0 c -0.042,1.865 -0.503,2.997 -2.557,2.997 -1.634,0 -2.662,-0.566 -2.662,-2.348 0,-2.242 1.132,-2.304 2.851,-3.542 1.865,-1.34 3.771,-1.738 3.771,-4.672 0,-2.704 -1.382,-4.024 -4.023,-4.024 -2.954,0 -4.275,1.593 -4.15,4.548 h 1.384 c 0,-1.677 0.126,-3.416 2.829,-3.416 1.76,0 2.619,0.943 2.619,2.683 0,2.053 -1.361,2.64 -3.541,3.981 -2.934,1.802 -3.06,2.703 -3.081,4.212 -0.02,2.62 1.635,3.709 4.108,3.709 C 0.691,4.128 1.361,2.18 1.361,0 Z"
         style="fill:#919696;fill-opacity:1;fill-rule:nonzero;stroke:none"
         id="path185" /></g><g
       id="g187"
       transform="translate(816.56896,477.56822)"><path
         d="M 0,0 H -3.688 V 1.132 H 5.029 V 0 H 1.342 V -13.998 H 0 Z"
         style="fill:#919696;fill-opacity:1;fill-rule:nonzero;stroke:none"
         id="path189" /></g><g
       id="g191"
       transform="translate(824.42926,472.03602)"><path
         d="m 0,0 h 2.179 c 2.012,0 2.955,0.524 2.955,3.06 0,2.074 -0.818,2.472 -2.39,2.472 H 0 Z m 0,-1.132 v -7.334 h -1.342 v 15.13 h 4.17 C 5.742,6.664 6.476,5.7 6.476,3.039 6.476,1.152 6.16,-0.104 4.128,-0.565 V -0.607 C 6.244,-1.048 6.37,-1.3 6.37,-6.706 c 0,-0.587 0.106,-1.173 0.148,-1.76 h -1.28 c -0.126,0.44 -0.188,2.955 -0.209,3.772 -0.021,0.649 0.419,3.562 -2.494,3.562 z"
         style="fill:#919696;fill-opacity:1;fill-rule:nonzero;stroke:none"
         id="path193" /></g><path
       d="m 834.90876,463.57032 h -1.341 v 15.13 h 1.341 z"
       style="fill:#919696;fill-opacity:1;fill-rule:nonzero;stroke:none"
       id="path195" /><g
       id="g197"
       transform="translate(839.10016,464.70102)"><path
         d="m 0,0 h 2.138 c 2.221,0 3.29,0.755 3.29,2.977 0,1.34 -0.399,3.164 -2.703,3.164 H 0 Z m 2.578,7.271 c 1.928,0 2.535,1.321 2.535,3.04 0,2.514 -1.383,2.556 -2.452,2.556 H 0 V 7.271 Z m -3.919,-8.402 v 15.13 h 4.212 c 2.368,0 3.583,-0.964 3.583,-3.625 0,-1.823 -0.293,-3.081 -2.2,-3.604 V 6.728 C 6.245,6.309 6.769,4.988 6.769,3.081 6.769,0.356 5.47,-1.131 2.935,-1.131 Z"
         style="fill:#919696;fill-opacity:1;fill-rule:nonzero;stroke:none"
         id="path199" /></g><g
       id="g201"
       transform="translate(849.32866,469.18642)"><path
         d="m 0,0 c 0,-1.97 0,-4.778 3.081,-4.778 3.081,0 3.081,2.808 3.081,4.778 V 9.514 H 7.503 V -0.985 c 0,-3.898 -2.054,-4.925 -4.422,-4.925 -2.368,0 -4.422,1.027 -4.422,4.925 V 9.514 H 0 Z"
         style="fill:#919696;fill-opacity:1;fill-rule:nonzero;stroke:none"
         id="path203" /></g><g
       id="g205"
       transform="translate(859.18026,471.13462)"><path
         d="m 0,0 c 0,2.934 -0.355,7.858 4.568,7.858 3.919,0 3.731,-3.541 3.731,-4.379 H 6.916 C 7,5.155 6.412,6.728 4.568,6.728 1.3,6.728 1.342,3.814 1.342,0 c 0,-3.813 -0.042,-6.727 3.226,-6.727 1.74,0 2.39,1.551 2.411,3.5 H 8.403 C 8.403,-4.316 8.152,-7.858 4.568,-7.858 -0.355,-7.858 0,-2.934 0,0"
         style="fill:#919696;fill-opacity:1;fill-rule:nonzero;stroke:none"
         id="path207" /></g><path
       d="m 871.25376,463.57032 h -1.341 v 15.13 h 1.341 z"
       style="fill:#919696;fill-opacity:1;fill-rule:nonzero;stroke:none"
       id="path209" /><g
       id="g211"
       transform="translate(879.53186,482.72352)"><path
         d="M 0,0 H 1.676 L -1.32,-2.871 h -1.048 z m 2.18,-11.589 c 0,3.815 0.042,6.728 -3.228,6.728 -3.268,0 -3.226,-2.913 -3.226,-6.728 0,-3.813 -0.042,-6.726 3.226,-6.726 3.27,0 3.228,2.913 3.228,6.726 m -7.796,0 c 0,2.934 -0.357,7.859 4.568,7.859 4.925,0 4.569,-4.925 4.569,-7.859 0,-2.933 0.356,-7.858 -4.569,-7.858 -4.925,0 -4.568,4.925 -4.568,7.858"
         style="fill:#919696;fill-opacity:1;fill-rule:nonzero;stroke:none"
         id="path213" /></g><g
       id="g215"
       transform="translate(885.71546,463.57022)"><path
         d="M 0,0 V 15.13 H 2.054 L 8.194,1.844 8.236,1.886 V 15.13 H 9.577 V 0 H 7.544 L 1.383,13.433 1.341,13.391 V 0 Z"
         style="fill:#919696;fill-opacity:1;fill-rule:nonzero;stroke:none"
         id="path217" /></g><g
       id="g219"
       transform="translate(905.08166,477.56822)"><path
         d="M 0,0 H -3.688 V 1.132 H 5.029 V 0 H 1.342 V -13.998 H 0 Z"
         style="fill:#919696;fill-opacity:1;fill-rule:nonzero;stroke:none"
         id="path221" /></g><g
       id="g223"
       transform="translate(912.94206,472.03602)"><path
         d="m 0,0 h 2.179 c 2.012,0 2.955,0.524 2.955,3.06 0,2.074 -0.818,2.472 -2.39,2.472 H 0 Z m 0,-1.132 v -7.334 h -1.342 v 15.13 h 4.17 C 5.742,6.664 6.476,5.7 6.476,3.039 6.476,1.152 6.16,-0.104 4.128,-0.565 V -0.607 C 6.244,-1.048 6.37,-1.3 6.37,-6.706 c 0,-0.587 0.106,-1.173 0.148,-1.76 h -1.28 c -0.126,0.44 -0.188,2.955 -0.209,3.772 -0.021,0.649 0.419,3.562 -2.494,3.562 z"
         style="fill:#919696;fill-opacity:1;fill-rule:nonzero;stroke:none"
         id="path225" /></g><g
       id="g227"
       transform="translate(929.45766,471.13462)"><path
         d="m 0,0 c 0,3.814 0.042,6.728 -3.228,6.728 -3.268,0 -3.226,-2.914 -3.226,-6.728 0,-3.813 -0.042,-6.727 3.226,-6.727 C 0.042,-6.727 0,-3.813 0,0 m -7.796,0 c 0,2.934 -0.356,7.858 4.568,7.858 4.925,0 4.569,-4.924 4.569,-7.858 0,-2.934 0.356,-7.858 -4.569,-7.858 -4.924,0 -4.568,4.924 -4.568,7.858"
         style="fill:#919696;fill-opacity:1;fill-rule:nonzero;stroke:none"
         id="path229" /></g><g
       id="g231"
       transform="translate(933.46156,463.57022)"><path
         d="M 0,0 V 15.13 H 2.054 L 8.194,1.844 8.236,1.886 V 15.13 H 9.577 V 0 H 7.545 L 1.383,13.433 1.341,13.391 V 0 Z"
         style="fill:#919696;fill-opacity:1;fill-rule:nonzero;stroke:none"
         id="path233" /></g><g
       id="g235"
       transform="translate(945.59826,471.13462)"><path
         d="m 0,0 c 0,2.934 -0.356,7.858 4.568,7.858 3.918,0 3.73,-3.541 3.73,-4.379 H 6.915 C 6.999,5.155 6.412,6.728 4.568,6.728 1.299,6.728 1.341,3.814 1.341,0 c 0,-3.813 -0.042,-6.727 3.227,-6.727 1.74,0 2.389,1.551 2.41,3.5 H 8.402 C 8.402,-4.316 8.151,-7.858 4.568,-7.858 -0.356,-7.858 0,-2.934 0,0"
         style="fill:#919696;fill-opacity:1;fill-rule:nonzero;stroke:none"
         id="path237" /></g><g
       id="g239"
       transform="translate(963.05626,468.68352)"><path
         d="M 0,0 -2.578,8.55 H -2.62 L -5.177,0 Z M -1.739,10.017 2.976,-5.113 H 1.571 l -1.215,3.981 h -5.93 L -6.77,-5.113 h -1.34 l 4.778,15.13 z"
         style="fill:#919696;fill-opacity:1;fill-rule:nonzero;stroke:none"
         id="path241" /></g><g
       id="g243"
       transform="translate(967.50066,463.57022)"><path
         d="M 0,0 V 15.13 H 1.342 V 1.131 H 6.35 V 0 Z"
         style="fill:#919696;fill-opacity:1;fill-rule:nonzero;stroke:none"
         id="path245" /></g><g
       id="g247"
       transform="translate(981.35416,464.70102)"><path
         d="m 0,0 h 1.635 c 4.045,0 4.443,1.09 4.443,7.271 0,4.339 -0.587,5.596 -4.317,5.596 H 0 Z m -1.341,13.999 h 4.003 c 4.234,0 4.757,-2.473 4.757,-7.628 0,-5.029 -0.733,-7.502 -5.302,-7.502 h -3.458 z"
         style="fill:#919696;fill-opacity:1;fill-rule:nonzero;stroke:none"
         id="path249" /></g><g
       id="g251"
       transform="translate(998.28966,478.70012)"><path
         d="M 0,0 V -1.132 H -5.512 V -6.79 h 5.26 v -1.132 h -5.26 v -6.077 H 0.146 V -15.13 H -6.853 V 0 Z"
         style="fill:#919696;fill-opacity:1;fill-rule:nonzero;stroke:none"
         id="path253" /></g><g
       id="g255"
       transform="translate(1004.7663,463.57022)"><path
         d="M 0,0 V 15.13 H 1.341 V 1.131 H 6.35 V 0 Z"
         style="fill:#919696;fill-opacity:1;fill-rule:nonzero;stroke:none"
         id="path257" /></g><g
       id="g259"
       transform="translate(1019.6686,468.68352)"><path
         d="M 0,0 -2.578,8.55 H -2.62 L -5.177,0 Z M -1.739,10.017 2.976,-5.113 H 1.571 l -1.216,3.981 h -5.93 L -6.77,-5.113 h -1.34 l 4.778,15.13 z"
         style="fill:#919696;fill-opacity:1;fill-rule:nonzero;stroke:none"
         id="path261" /></g><g
       id="g263"
       transform="translate(1029.8141,471.74302)"><path
         d="m 0,0 h 2.493 c 1.404,0 2.306,0.67 2.306,3.038 0,2.577 -1.111,2.787 -2.326,2.787 L 0,5.825 Z m -1.342,6.957 h 4.15 C 4.064,6.957 6.14,6.789 6.14,3.29 6.14,0.251 5.154,-1.132 2.556,-1.132 H 0 v -7.041 h -1.342 z"
         style="fill:#919696;fill-opacity:1;fill-rule:nonzero;stroke:none"
         id="path265" /></g><g
       id="g267"
       transform="translate(1043.7546,468.68352)"><path
         d="M 0,0 -2.577,8.55 H -2.619 L -5.176,0 Z M -1.739,10.017 2.977,-5.113 H 1.572 l -1.216,3.981 h -5.93 l -1.195,-3.981 h -1.34 l 4.777,15.13 z"
         style="fill:#919696;fill-opacity:1;fill-rule:nonzero;stroke:none"
         id="path269" /></g><g
       id="g271"
       transform="translate(1049.3141,477.56822)"><path
         d="M 0,0 H -3.688 V 1.132 H 5.028 V 0 H 1.341 V -13.998 H 0 Z"
         style="fill:#919696;fill-opacity:1;fill-rule:nonzero;stroke:none"
         id="path273" /></g><g
       id="g275"
       transform="translate(1061.7458,468.68352)"><path
         d="M 0,0 -2.577,8.55 H -2.619 L -5.176,0 Z M -1.739,10.017 2.977,-5.113 H 1.571 l -1.215,3.981 h -5.93 L -6.769,-5.113 H -8.11 l 4.778,15.13 z"
         style="fill:#919696;fill-opacity:1;fill-rule:nonzero;stroke:none"
         id="path277" /></g><g
       id="g279"
       transform="translate(1073.4206,470.33872)"><path
         d="M 0,0 H -3.06 V 1.132 H 1.342 V -6.434 C 0,-6.853 -1.404,-7.062 -2.829,-7.062 c -4.925,0 -4.567,4.924 -4.567,7.858 0,2.933 -0.358,7.858 4.567,7.858 2.892,0 4.38,-1.236 4.317,-4.17 H 0.146 c 0,1.991 -0.858,3.039 -2.975,3.039 -3.269,0 -3.227,-2.913 -3.227,-6.727 0,-3.814 -0.042,-6.727 3.227,-6.727 1.153,0 2.117,0.168 2.829,0.441 z"
         style="fill:#919696;fill-opacity:1;fill-rule:nonzero;stroke:none"
         id="path281" /></g><g
       id="g283"
       transform="translate(1085.2419,471.13462)"><path
         d="m 0,0 c 0,3.814 0.042,6.728 -3.228,6.728 -3.268,0 -3.226,-2.914 -3.226,-6.728 0,-3.813 -0.042,-6.727 3.226,-6.727 C 0.042,-6.727 0,-3.813 0,0 m -7.796,0 c 0,2.934 -0.356,7.858 4.568,7.858 4.925,0 4.569,-4.924 4.569,-7.858 0,-2.934 0.356,-7.858 -4.569,-7.858 -4.924,0 -4.568,4.924 -4.568,7.858"
         style="fill:#919696;fill-opacity:1;fill-rule:nonzero;stroke:none"
         id="path285" /></g><g
       id="g287"
       transform="translate(1089.2468,463.57022)"><path
         d="M 0,0 V 15.13 H 2.054 L 8.194,1.844 8.235,1.886 V 15.13 H 9.577 V 0 H 7.544 L 1.383,13.433 1.341,13.391 V 0 Z"
         style="fill:#919696;fill-opacity:1;fill-rule:nonzero;stroke:none"
         id="path289" /></g><path
       d="m 1103.2058,463.57032 h -1.341 v 15.13 h 1.341 z"
       style="fill:#919696;fill-opacity:1;fill-rule:nonzero;stroke:none"
       id="path291" /><g
       id="g293"
       transform="translate(1113.0143,468.68352)"><path
         d="M 0,0 -2.578,8.55 H -2.62 L -5.177,0 Z M -1.739,10.017 2.976,-5.113 H 1.571 L 0.355,-1.132 H -5.574 L -6.77,-5.113 h -1.34 l 4.778,15.13 z"
         style="fill:#919696;fill-opacity:1;fill-rule:nonzero;stroke:none"
         id="path295" /></g><g
       id="g297"
       transform="translate(464.82866,594.92572)"><path
         d="M 0,0 H 76.519 L 72.667,-18.272 45.703,-18.167 29.774,-93.545 H 7.027 l 16.079,75.288 -26.958,-0.015 z"
         style="fill:#919696;fill-opacity:1;fill-rule:nonzero;stroke:none"
         id="path299" /></g><g
       id="g301"
       transform="translate(612.16366,501.34462)"><path
         d="M 0,0 53.772,93.586 H 78.575 L 91.368,0 H 69.041 L 66.562,19.24 H 33.159 L 22.349,0 Z"
         style="fill:#919696;fill-opacity:1;fill-rule:nonzero;stroke:none"
         id="path303" /></g><g
       id="g305"
       transform="translate(655.28226,538.77872)"><path
         d="M 0,0 H 21.376 L 17.872,32.067 Z"
         style="fill:#ffffff;fill-opacity:1;fill-rule:nonzero;stroke:none"
         id="path307" /></g><g
       id="g309"
       transform="translate(944.19886,501.34462)"><path
         d="M 0,0 53.772,93.586 H 78.586 L 91.379,0 H 69.041 L 66.563,19.24 H 33.159 L 22.35,0 Z"
         style="fill:#67c530;fill-opacity:1;fill-rule:nonzero;stroke:none"
         id="path311" /></g><g
       id="g313"
       transform="translate(987.31806,538.77872)"><path
         d="M 0,0 H 21.376 L 17.871,32.067 Z"
         style="fill:#ffffff;fill-opacity:1;fill-rule:nonzero;stroke:none"
         id="path315" /></g><g
       id="g317"
       transform="translate(710.27496,501.34462)"><path
         d="M 0,0 19.801,93.545 H 51.054 L 69.115,27.252 83.194,93.545 h 21.371 L 84.763,0 H 54.823 L 36.306,68.048 21.384,0 Z"
         style="fill:#919696;fill-opacity:1;fill-rule:nonzero;stroke:none"
         id="path319" /></g><g
       id="g321"
       transform="translate(577.10556,537.82702)"><path
         d="m 0,0 c -4.643,0 -18.622,-0.002 -18.622,-0.002 l -7.698,-36.371 -22.653,-0.073 19.841,93.545 h 41.089 c 0,0 27.522,0.825 27.129,-19.697 -0.404,-21.088 -19.627,-27.23 -19.627,-27.23 0,0 4.196,-1.193 6.304,-5.245 2.075,-3.987 1.559,-9.17 1.559,-9.17 0,0 -0.173,-3.684 -0.297,-4.902 -1.15,-11.315 -0.989,-12.146 -1.121,-15.747 -0.311,-8.447 2.476,-11.554 2.476,-11.554 H 2.794 c 0,0 0.212,10.159 0.779,16.047 C 4.371,-12.113 5.1,-8.311 4.769,-5.005 4.225,0.434 0.976,0 0,0"
         style="fill:#919696;fill-opacity:1;fill-rule:nonzero;stroke:none"
         id="path323" /></g><g
       id="g325"
       transform="translate(562.34626,555.85142)"><path
         d="m 0,0 4.391,20.691 12.407,0.029 c 0,0 2.716,0.017 3.631,-0.041 1.87,-0.119 6.953,-0.352 8.404,-4.284 C 30.138,12.858 27.907,6.115 24.685,3.522 19.84,-0.376 16.269,0.167 15.588,0.065 15.406,0.039 12.766,-0.051 11.519,-0.017 9.879,0.027 0,0 0,0"
         style="fill:#ffffff;fill-opacity:1;fill-rule:nonzero;stroke:none"
         id="path327" /></g><g
       id="g329"
       transform="translate(891.45176,565.95302)"><path
         d="m 0,0 -21.738,-0.005 c 0,0 1.802,7.961 -1.882,11.207 -5.83,5.136 -16.551,0.572 -16.935,0.381 -6.906,-3.436 -6.84,-9.092 -7.01,-9.995 -0.961,-5.092 4.511,-7.426 9.579,-8.433 1.724,-0.342 9.016,-2.322 9.161,-2.36 4.338,-1.11 11.783,-4.008 13.464,-4.927 6.281,-3.436 10.412,-7.702 10.931,-14.646 0.764,-10.203 -6.302,-25.197 -20.752,-32.032 -7.704,-3.644 -18.843,-5.934 -27.623,-5.691 -8.468,0.234 -14.655,1.844 -19.052,3.921 -8.814,4.165 -11.757,14.052 -11.07,20.094 0.625,5.484 1.802,10.006 1.802,10.006 l 23.126,0.004 c 0,0 -2.455,-7.672 -0.823,-10.883 2.247,-4.419 8.326,-7.783 18.666,-4.898 0.864,0.241 10.176,2.503 10.883,11.211 0.545,6.706 -10.448,8.544 -10.448,8.544 0,0 -12.322,2.899 -17.196,5.007 -6.041,2.612 -13.877,7.401 -15.292,15.946 -0.072,0.433 -2.558,15.945 13.985,28.571 4.13,3.153 10.668,6.902 18.993,8.436 2.068,0.381 21.441,4.735 31.678,-3.923 2.043,-1.728 3.532,-1.846 6.796,-8.267 C 2.983,9.913 0,0 0,0"
         style="fill:#919696;fill-opacity:1;fill-rule:nonzero;stroke:none"
         id="path331" /></g><g
       id="g333"
       transform="translate(888.06706,501.34462)"><path
         d="m 0,0 h 22.639 l 7.405,34.842 12.935,0.007 c 0,0 16.164,-0.181 27.355,9.502 1.926,1.666 15.582,14.602 11.399,33.784 -3.643,16.711 -31.99,15.41 -31.99,15.41 H 19.83 Z"
         style="fill:#67c530;fill-opacity:1;fill-rule:nonzero;stroke:none"
         id="path335" /></g><g
       id="g337"
       transform="translate(921.97526,554.24552)"><path
         d="m 0,0 4.71,22.233 7.007,0.078 c 0,0 2.715,0.017 3.631,-0.041 1.869,-0.12 7.088,0.01 8.539,-3.922 C 25.191,14.812 23.974,8.389 20.98,4.517 17.045,-0.575 11.187,0.091 10.506,-0.01 10.323,-0.037 7.684,-0.126 6.437,-0.092 4.797,-0.048 0,0 0,0"
         style="fill:#ffffff;fill-opacity:1;fill-rule:nonzero;stroke:none"
         id="path339" /></g><g
       id="g341"
       transform="translate(1052.5524,501.36412)"><path
         d="m 0,0 0.001,-0.001 c 0,0 -3.556,0.104 -3.556,3.351 C -3.555,6.608 0,6.702 0,6.702 h 13.003 c 0,0 3.554,-0.094 3.554,-3.352 0,-3.247 -3.556,-3.351 -3.556,-3.351 L 13.003,0 Z"
         style="fill:#67c530;fill-opacity:1;fill-rule:nonzero;stroke:none"
         id="path343" /></g><g
       id="g345"
       transform="translate(1053.0056,530.31092)"><path
         d="m 0,0 0.001,-0.001 c 0,0 -4.009,0.104 -4.009,3.351 C -4.008,6.608 0,6.703 0,6.703 h 27.584 c 0,0 4.008,-0.095 4.008,-3.353 0,-3.247 -4.009,-3.351 -4.009,-3.351 L 27.584,0 Z"
         style="fill:#67c530;fill-opacity:1;fill-rule:nonzero;stroke:none"
         id="path347" /></g><g
       id="g349"
       transform="translate(1053.0056,559.25822)"><path
         d="m 0,0 0.001,-0.001 c 0,0 -4.009,0.104 -4.009,3.351 C -4.008,6.608 0,6.703 0,6.703 h 43.381 c 0,0 4.008,-0.095 4.008,-3.353 0,-3.247 -4.009,-3.351 -4.009,-3.351 L 43.381,0 Z"
         style="fill:#67c530;fill-opacity:1;fill-rule:nonzero;stroke:none"
         id="path351" /></g><g
       id="g353"
       transform="translate(1053.072,588.24602)"><path
         d="m 0,0 0.001,-0.001 c 0,0 -4.075,0.104 -4.075,3.351 C -4.074,6.608 0,6.703 0,6.703 h 58.891 c 0,0 4.074,-0.095 4.074,-3.353 C 62.965,0.103 59.312,0 59.312,0 h -0.421 z"
         style="fill:#67c530;fill-opacity:1;fill-rule:nonzero;stroke:none"
         id="path355" /></g></g></svg>
